<svg width="20" height="20" viewBox="0 0 20 20" fill="none" xmlns="http://www.w3.org/2000/svg"><circle cx="10" cy="10" r="10" fill="#F7F9FD"/><path d="M11.812 9.415 12.84 7.67l2.772 4.316v.829l-.008-5.7a.43.43 0 0 0-.199-.342l-4.989-2.87a.44.44 0 0 0-.426.027l-.017.011L5.13 6.748l-.019.008a.438.438 0 0 0-.244.314.43.43 0 0 0-.006.05l.007 4.646L7.45 7.765c.325-.53 1.033-.701 1.69-.692l.772.02-4.546 7.29.536.309 4.6-7.591 2.033-.008-4.588 7.783 1.912 1.1.228.13c.097.04.21.042.308.007l5.06-2.932-.967.56-2.676-4.326Zm.393 5.65-1.932-3.031 1.18-2 2.535 3.997-1.784 1.034Z" fill="#2D374B"/><path d="m10.273 12.034 1.932 3.03 1.784-1.033-2.537-3.998-1.179 2Zm5.34.781-.001-.829L12.84 7.67l-1.028 1.745 2.675 4.326.967-.56a.43.43 0 0 0 .158-.312v-.054Z" fill="#28A0F0"/><path d="m4 13.596 1.366.787 4.546-7.29-.772-.02c-.657-.01-1.365.161-1.69.692l-2.582 4L4 13.1v.496Zm8.535-6.503-2.033.008-4.6 7.59 1.608.926.437-.741 4.588-7.783Z" fill="#fff"/><path d="M16.47 7.083a1.295 1.295 0 0 0-.608-1.041l-5.055-2.907a1.315 1.315 0 0 0-1.16 0c-.042.021-4.915 2.847-4.915 2.847A1.296 1.296 0 0 0 4 7.08v6.02l.868-1.334-.007-4.645a.428.428 0 0 1 .179-.323c.022-.016 4.979-2.886 4.995-2.893a.44.44 0 0 1 .381-.002l4.99 2.87a.43.43 0 0 1 .198.342v5.754a.42.42 0 0 1-.15.312l-.966.56-.5.29-1.784 1.034-1.809 1.048a.439.439 0 0 1-.308-.006l-2.14-1.231-.437.741 1.923 1.108a32.346 32.346 0 0 0 .305.17c.137.066.334.105.511.105.163 0 .321-.03.471-.089l5.255-3.043c.301-.233.479-.586.495-.968V7.083Z" fill="#96BEDC"/></svg>
