<svg width="20" height="20" fill="none" xmlns="http://www.w3.org/2000/svg" viewBox="0 0 1024 1024"><circle cx="512" cy="512" r="512" fill="#fff"/><path fill="#8247E5" d="M681.469 402.456c-12.28-7.144-28.245-7.144-41.753 0l-95.788 54.772-65.086 35.721-95.787 54.772c-12.281 7.144-28.245 7.144-41.754 0l-76.139-42.865c-12.28-7.144-20.876-20.242-20.876-34.53v-84.54c0-14.288 7.368-27.386 20.876-34.53l74.911-41.675c12.28-7.144 28.245-7.144 41.754 0l74.91 41.675c12.281 7.144 20.877 20.242 20.877 34.53v54.772l65.086-36.911v-54.773c0-14.288-7.368-27.386-20.876-34.53l-138.769-78.586c-12.281-7.144-28.245-7.144-41.754 0l-141.225 78.586c-13.509 7.144-20.877 20.242-20.877 34.53v158.363c0 14.289 7.368 27.386 20.877 34.53l141.225 78.587c12.281 7.144 28.245 7.144 41.754 0l95.787-53.582 65.086-36.912 95.788-53.581c12.28-7.144 28.245-7.144 41.753 0l74.911 41.675c12.28 7.144 20.877 20.241 20.877 34.53v84.539c0 14.289-7.369 27.386-20.877 34.531l-74.911 42.865c-12.28 7.144-28.245 7.144-41.753 0l-74.911-41.675c-12.28-7.144-20.877-20.242-20.877-34.53v-54.772l-65.086 36.912v54.772c0 14.288 7.368 27.386 20.877 34.53l141.225 78.586c12.28 7.144 28.245 7.144 41.753 0l141.225-78.586c12.281-7.144 20.877-20.242 20.877-34.53V516.763c0-14.289-7.368-27.386-20.877-34.53l-142.453-79.777Z"/></svg>
